<mxfile host="app.diagrams.net" agent="Mozilla/5.0 (Windows NT 10.0; Win64; x64) AppleWebKit/537.36 (KHTML, like Gecko) Chrome/131.0.0.0 Safari/537.36" version="25.0.3">
  <diagram name="第 1 页" id="kxqVYqJlJfO8yekr-a93">
    <mxGraphModel dx="1430" dy="757" grid="1" gridSize="10" guides="1" tooltips="1" connect="1" arrows="1" fold="1" page="1" pageScale="1" pageWidth="827" pageHeight="1169" math="0" shadow="0">
      <root>
        <mxCell id="0" />
        <mxCell id="1" parent="0" />
        <mxCell id="o2opHAhLZFC4S9L2oqpG-1" value="Radius B" style="ellipse;whiteSpace=wrap;html=1;aspect=fixed;" parent="1" vertex="1">
          <mxGeometry x="110" y="150" width="100" height="100" as="geometry" />
        </mxCell>
        <mxCell id="o2opHAhLZFC4S9L2oqpG-2" value="Radius A" style="ellipse;whiteSpace=wrap;html=1;aspect=fixed;" parent="1" vertex="1">
          <mxGeometry x="210" y="330" width="50" height="50" as="geometry" />
        </mxCell>
        <mxCell id="o2opHAhLZFC4S9L2oqpG-3" value="" style="endArrow=classic;html=1;rounded=0;exitX=0.95;exitY=0.75;exitDx=0;exitDy=0;exitPerimeter=0;" parent="1" source="o2opHAhLZFC4S9L2oqpG-1" edge="1">
          <mxGeometry width="50" height="50" relative="1" as="geometry">
            <mxPoint x="236" y="270" as="sourcePoint" />
            <mxPoint x="256" y="270" as="targetPoint" />
          </mxGeometry>
        </mxCell>
        <mxCell id="o2opHAhLZFC4S9L2oqpG-4" value="" style="endArrow=classic;html=1;rounded=0;exitX=0.253;exitY=0.043;exitDx=0;exitDy=0;exitPerimeter=0;" parent="1" source="o2opHAhLZFC4S9L2oqpG-2" edge="1">
          <mxGeometry width="50" height="50" relative="1" as="geometry">
            <mxPoint x="126" y="350" as="sourcePoint" />
            <mxPoint x="200" y="290" as="targetPoint" />
          </mxGeometry>
        </mxCell>
        <mxCell id="o2opHAhLZFC4S9L2oqpG-5" value="" style="endArrow=classic;html=1;rounded=0;" parent="1" edge="1">
          <mxGeometry width="50" height="50" relative="1" as="geometry">
            <mxPoint x="40" y="400" as="sourcePoint" />
            <mxPoint x="320" y="400" as="targetPoint" />
          </mxGeometry>
        </mxCell>
        <mxCell id="o2opHAhLZFC4S9L2oqpG-6" value="" style="endArrow=classic;html=1;rounded=0;" parent="1" edge="1">
          <mxGeometry width="50" height="50" relative="1" as="geometry">
            <mxPoint x="40" y="400" as="sourcePoint" />
            <mxPoint x="40" y="120" as="targetPoint" />
          </mxGeometry>
        </mxCell>
        <mxCell id="o2opHAhLZFC4S9L2oqpG-7" value="RB" style="ellipse;whiteSpace=wrap;html=1;aspect=fixed;" parent="1" vertex="1">
          <mxGeometry x="430" y="150" width="100" height="100" as="geometry" />
        </mxCell>
        <mxCell id="o2opHAhLZFC4S9L2oqpG-8" value="RA" style="ellipse;whiteSpace=wrap;html=1;aspect=fixed;" parent="1" vertex="1">
          <mxGeometry x="530" y="330" width="50" height="50" as="geometry" />
        </mxCell>
        <mxCell id="o2opHAhLZFC4S9L2oqpG-9" value="" style="endArrow=classic;html=1;rounded=0;" parent="1" edge="1">
          <mxGeometry width="50" height="50" relative="1" as="geometry">
            <mxPoint x="360" y="400" as="sourcePoint" />
            <mxPoint x="640" y="400" as="targetPoint" />
          </mxGeometry>
        </mxCell>
        <mxCell id="o2opHAhLZFC4S9L2oqpG-10" value="" style="endArrow=classic;html=1;rounded=0;" parent="1" edge="1">
          <mxGeometry width="50" height="50" relative="1" as="geometry">
            <mxPoint x="360" y="400" as="sourcePoint" />
            <mxPoint x="360" y="120" as="targetPoint" />
          </mxGeometry>
        </mxCell>
        <mxCell id="o2opHAhLZFC4S9L2oqpG-11" value="RA" style="ellipse;whiteSpace=wrap;html=1;aspect=fixed;" parent="1" vertex="1">
          <mxGeometry x="389" y="210" width="50" height="50" as="geometry" />
        </mxCell>
        <mxCell id="o2opHAhLZFC4S9L2oqpG-12" value="RA" style="ellipse;whiteSpace=wrap;html=1;aspect=fixed;" parent="1" vertex="1">
          <mxGeometry x="520" y="140" width="50" height="50" as="geometry" />
        </mxCell>
        <mxCell id="o2opHAhLZFC4S9L2oqpG-13" value="RB" style="ellipse;whiteSpace=wrap;html=1;aspect=fixed;" parent="1" vertex="1">
          <mxGeometry x="110" y="520" width="100" height="100" as="geometry" />
        </mxCell>
        <mxCell id="o2opHAhLZFC4S9L2oqpG-15" value="" style="endArrow=classic;html=1;rounded=0;" parent="1" edge="1">
          <mxGeometry width="50" height="50" relative="1" as="geometry">
            <mxPoint x="40" y="770" as="sourcePoint" />
            <mxPoint x="320" y="770" as="targetPoint" />
          </mxGeometry>
        </mxCell>
        <mxCell id="o2opHAhLZFC4S9L2oqpG-16" value="" style="endArrow=classic;html=1;rounded=0;" parent="1" edge="1">
          <mxGeometry width="50" height="50" relative="1" as="geometry">
            <mxPoint x="40" y="770" as="sourcePoint" />
            <mxPoint x="40" y="490" as="targetPoint" />
          </mxGeometry>
        </mxCell>
        <mxCell id="o2opHAhLZFC4S9L2oqpG-17" value="RA" style="ellipse;whiteSpace=wrap;html=1;aspect=fixed;" parent="1" vertex="1">
          <mxGeometry x="69" y="580" width="50" height="50" as="geometry" />
        </mxCell>
        <mxCell id="o2opHAhLZFC4S9L2oqpG-18" value="RA" style="ellipse;whiteSpace=wrap;html=1;aspect=fixed;" parent="1" vertex="1">
          <mxGeometry x="200" y="510" width="50" height="50" as="geometry" />
        </mxCell>
        <mxCell id="o2opHAhLZFC4S9L2oqpG-19" value="" style="endArrow=classic;html=1;rounded=0;" parent="1" edge="1">
          <mxGeometry width="50" height="50" relative="1" as="geometry">
            <mxPoint x="220" y="710" as="sourcePoint" />
            <mxPoint x="230" y="490" as="targetPoint" />
          </mxGeometry>
        </mxCell>
        <mxCell id="o2opHAhLZFC4S9L2oqpG-20" value="" style="endArrow=classic;html=1;rounded=0;" parent="1" edge="1">
          <mxGeometry width="50" height="50" relative="1" as="geometry">
            <mxPoint x="220" y="710" as="sourcePoint" />
            <mxPoint x="50" y="570" as="targetPoint" />
          </mxGeometry>
        </mxCell>
        <mxCell id="o2opHAhLZFC4S9L2oqpG-22" value="A" style="text;html=1;align=center;verticalAlign=middle;whiteSpace=wrap;rounded=0;" parent="1" vertex="1">
          <mxGeometry x="215" y="710" width="20" height="20" as="geometry" />
        </mxCell>
        <mxCell id="o2opHAhLZFC4S9L2oqpG-23" value="RB + RB" style="ellipse;whiteSpace=wrap;html=1;aspect=fixed;" parent="1" vertex="1">
          <mxGeometry x="410" y="500" width="140" height="140" as="geometry" />
        </mxCell>
        <mxCell id="o2opHAhLZFC4S9L2oqpG-24" value="" style="endArrow=classic;html=1;rounded=0;" parent="1" edge="1">
          <mxGeometry width="50" height="50" relative="1" as="geometry">
            <mxPoint x="360" y="770" as="sourcePoint" />
            <mxPoint x="640" y="770" as="targetPoint" />
          </mxGeometry>
        </mxCell>
        <mxCell id="o2opHAhLZFC4S9L2oqpG-25" value="" style="endArrow=classic;html=1;rounded=0;" parent="1" edge="1">
          <mxGeometry width="50" height="50" relative="1" as="geometry">
            <mxPoint x="360" y="770" as="sourcePoint" />
            <mxPoint x="360" y="490" as="targetPoint" />
          </mxGeometry>
        </mxCell>
        <mxCell id="o2opHAhLZFC4S9L2oqpG-28" value="" style="endArrow=classic;html=1;rounded=0;" parent="1" edge="1">
          <mxGeometry width="50" height="50" relative="1" as="geometry">
            <mxPoint x="540" y="710" as="sourcePoint" />
            <mxPoint x="560" y="490" as="targetPoint" />
          </mxGeometry>
        </mxCell>
        <mxCell id="o2opHAhLZFC4S9L2oqpG-29" value="" style="endArrow=classic;html=1;rounded=0;" parent="1" edge="1">
          <mxGeometry width="50" height="50" relative="1" as="geometry">
            <mxPoint x="540" y="710" as="sourcePoint" />
            <mxPoint x="370" y="570" as="targetPoint" />
          </mxGeometry>
        </mxCell>
        <mxCell id="o2opHAhLZFC4S9L2oqpG-30" value="A" style="text;html=1;align=center;verticalAlign=middle;whiteSpace=wrap;rounded=0;" parent="1" vertex="1">
          <mxGeometry x="535" y="710" width="20" height="20" as="geometry" />
        </mxCell>
        <mxCell id="H08UzFWmHtk6IA-yuStI-1" value="" style="endArrow=classic;html=1;rounded=0;exitX=0.254;exitY=0.059;exitDx=0;exitDy=0;exitPerimeter=0;" edge="1" parent="1" source="o2opHAhLZFC4S9L2oqpG-8">
          <mxGeometry width="50" height="50" relative="1" as="geometry">
            <mxPoint x="540" y="333" as="sourcePoint" />
            <mxPoint x="520" y="290" as="targetPoint" />
          </mxGeometry>
        </mxCell>
        <mxCell id="H08UzFWmHtk6IA-yuStI-2" value="" style="endArrow=none;html=1;rounded=0;" edge="1" parent="1">
          <mxGeometry width="50" height="50" relative="1" as="geometry">
            <mxPoint x="230" y="1040" as="sourcePoint" />
            <mxPoint x="230" y="940" as="targetPoint" />
          </mxGeometry>
        </mxCell>
        <mxCell id="H08UzFWmHtk6IA-yuStI-3" value="" style="endArrow=none;html=1;rounded=0;" edge="1" parent="1">
          <mxGeometry width="50" height="50" relative="1" as="geometry">
            <mxPoint x="230" y="940" as="sourcePoint" />
            <mxPoint x="340" y="940" as="targetPoint" />
            <Array as="points">
              <mxPoint x="310" y="940" />
            </Array>
          </mxGeometry>
        </mxCell>
        <mxCell id="H08UzFWmHtk6IA-yuStI-4" value="" style="endArrow=none;html=1;rounded=0;" edge="1" parent="1">
          <mxGeometry width="50" height="50" relative="1" as="geometry">
            <mxPoint x="30" y="1047" as="sourcePoint" />
            <mxPoint x="470" y="1047.08" as="targetPoint" />
          </mxGeometry>
        </mxCell>
        <mxCell id="H08UzFWmHtk6IA-yuStI-5" value="" style="endArrow=none;html=1;rounded=0;" edge="1" parent="1">
          <mxGeometry width="50" height="50" relative="1" as="geometry">
            <mxPoint x="340" y="940" as="sourcePoint" />
            <mxPoint x="340" y="1040" as="targetPoint" />
            <Array as="points" />
          </mxGeometry>
        </mxCell>
        <mxCell id="H08UzFWmHtk6IA-yuStI-6" value="" style="ellipse;whiteSpace=wrap;html=1;aspect=fixed;" vertex="1" parent="1">
          <mxGeometry x="227.5" y="920" width="15" height="15" as="geometry" />
        </mxCell>
        <mxCell id="H08UzFWmHtk6IA-yuStI-8" value="" style="ellipse;whiteSpace=wrap;html=1;aspect=fixed;" vertex="1" parent="1">
          <mxGeometry x="330" y="920" width="15" height="15" as="geometry" />
        </mxCell>
        <mxCell id="H08UzFWmHtk6IA-yuStI-9" value="" style="endArrow=none;html=1;rounded=0;entryX=0;entryY=0.5;entryDx=0;entryDy=0;exitX=1;exitY=0.5;exitDx=0;exitDy=0;" edge="1" parent="1" source="H08UzFWmHtk6IA-yuStI-6" target="H08UzFWmHtk6IA-yuStI-8">
          <mxGeometry width="50" height="50" relative="1" as="geometry">
            <mxPoint x="200" y="1020" as="sourcePoint" />
            <mxPoint x="250" y="970" as="targetPoint" />
          </mxGeometry>
        </mxCell>
        <mxCell id="H08UzFWmHtk6IA-yuStI-10" value="" style="ellipse;whiteSpace=wrap;html=1;aspect=fixed;" vertex="1" parent="1">
          <mxGeometry x="415" y="1030" width="15" height="15" as="geometry" />
        </mxCell>
        <mxCell id="H08UzFWmHtk6IA-yuStI-11" value="" style="ellipse;whiteSpace=wrap;html=1;aspect=fixed;" vertex="1" parent="1">
          <mxGeometry x="140" y="1030" width="15" height="15" as="geometry" />
        </mxCell>
        <mxCell id="H08UzFWmHtk6IA-yuStI-12" value="" style="endArrow=none;html=1;rounded=0;entryX=0;entryY=1;entryDx=0;entryDy=0;exitX=1;exitY=0;exitDx=0;exitDy=0;" edge="1" parent="1" source="H08UzFWmHtk6IA-yuStI-11" target="H08UzFWmHtk6IA-yuStI-6">
          <mxGeometry width="50" height="50" relative="1" as="geometry">
            <mxPoint x="260" y="1000" as="sourcePoint" />
            <mxPoint x="310" y="950" as="targetPoint" />
          </mxGeometry>
        </mxCell>
        <mxCell id="H08UzFWmHtk6IA-yuStI-13" value="" style="endArrow=none;html=1;rounded=0;exitX=0.022;exitY=0.178;exitDx=0;exitDy=0;exitPerimeter=0;entryX=1;entryY=0.5;entryDx=0;entryDy=0;" edge="1" parent="1" source="H08UzFWmHtk6IA-yuStI-10" target="H08UzFWmHtk6IA-yuStI-8">
          <mxGeometry width="50" height="50" relative="1" as="geometry">
            <mxPoint x="121" y="1034" as="sourcePoint" />
            <mxPoint x="240" y="943" as="targetPoint" />
          </mxGeometry>
        </mxCell>
        <mxCell id="H08UzFWmHtk6IA-yuStI-19" value="Actor" style="shape=umlActor;verticalLabelPosition=bottom;verticalAlign=top;html=1;outlineConnect=0;" vertex="1" parent="1">
          <mxGeometry x="69" y="870" width="121" height="175" as="geometry" />
        </mxCell>
        <mxCell id="H08UzFWmHtk6IA-yuStI-22" value="" style="endArrow=none;dashed=1;html=1;rounded=0;" edge="1" parent="1">
          <mxGeometry width="50" height="50" relative="1" as="geometry">
            <mxPoint x="190" y="1045" as="sourcePoint" />
            <mxPoint x="190" y="985" as="targetPoint" />
          </mxGeometry>
        </mxCell>
        <mxCell id="H08UzFWmHtk6IA-yuStI-24" value="&lt;font style=&quot;font-size: 8px;&quot;&gt;偏移距离&lt;/font&gt;" style="text;html=1;align=center;verticalAlign=middle;whiteSpace=wrap;rounded=0;" vertex="1" parent="1">
          <mxGeometry x="185" y="1000" width="50" height="20" as="geometry" />
        </mxCell>
        <mxCell id="H08UzFWmHtk6IA-yuStI-25" value="" style="endArrow=none;html=1;rounded=0;" edge="1" parent="1">
          <mxGeometry width="50" height="50" relative="1" as="geometry">
            <mxPoint x="670" y="1080" as="sourcePoint" />
            <mxPoint x="760" y="930" as="targetPoint" />
          </mxGeometry>
        </mxCell>
        <mxCell id="H08UzFWmHtk6IA-yuStI-26" value="" style="endArrow=none;html=1;rounded=0;" edge="1" parent="1">
          <mxGeometry width="50" height="50" relative="1" as="geometry">
            <mxPoint x="810" y="990" as="sourcePoint" />
            <mxPoint x="760" y="930" as="targetPoint" />
          </mxGeometry>
        </mxCell>
        <mxCell id="H08UzFWmHtk6IA-yuStI-27" value="" style="endArrow=none;html=1;rounded=0;" edge="1" parent="1">
          <mxGeometry width="50" height="50" relative="1" as="geometry">
            <mxPoint x="810" y="990" as="sourcePoint" />
            <mxPoint x="830" y="950" as="targetPoint" />
          </mxGeometry>
        </mxCell>
        <mxCell id="H08UzFWmHtk6IA-yuStI-28" value="" style="endArrow=none;html=1;rounded=0;" edge="1" parent="1">
          <mxGeometry width="50" height="50" relative="1" as="geometry">
            <mxPoint x="830" y="950" as="sourcePoint" />
            <mxPoint x="900" y="1030" as="targetPoint" />
          </mxGeometry>
        </mxCell>
        <mxCell id="H08UzFWmHtk6IA-yuStI-29" value="" style="endArrow=none;html=1;rounded=0;" edge="1" parent="1">
          <mxGeometry width="50" height="50" relative="1" as="geometry">
            <mxPoint x="1030" y="1030" as="sourcePoint" />
            <mxPoint x="900" y="1030" as="targetPoint" />
          </mxGeometry>
        </mxCell>
        <mxCell id="H08UzFWmHtk6IA-yuStI-30" value="" style="endArrow=none;html=1;rounded=0;" edge="1" parent="1">
          <mxGeometry width="50" height="50" relative="1" as="geometry">
            <mxPoint x="560" y="1080" as="sourcePoint" />
            <mxPoint x="670" y="1080" as="targetPoint" />
          </mxGeometry>
        </mxCell>
        <mxCell id="H08UzFWmHtk6IA-yuStI-31" value="" style="ellipse;whiteSpace=wrap;html=1;aspect=fixed;" vertex="1" parent="1">
          <mxGeometry x="630" y="1060" width="15" height="15" as="geometry" />
        </mxCell>
        <mxCell id="H08UzFWmHtk6IA-yuStI-33" value="" style="ellipse;whiteSpace=wrap;html=1;aspect=fixed;" vertex="1" parent="1">
          <mxGeometry x="820" y="935" width="15" height="15" as="geometry" />
        </mxCell>
        <mxCell id="H08UzFWmHtk6IA-yuStI-34" value="" style="endArrow=none;html=1;rounded=0;exitX=0.932;exitY=0.259;exitDx=0;exitDy=0;exitPerimeter=0;" edge="1" parent="1" source="H08UzFWmHtk6IA-yuStI-31" target="H08UzFWmHtk6IA-yuStI-33">
          <mxGeometry width="50" height="50" relative="1" as="geometry">
            <mxPoint x="730" y="1060" as="sourcePoint" />
            <mxPoint x="780" y="1010" as="targetPoint" />
          </mxGeometry>
        </mxCell>
        <mxCell id="H08UzFWmHtk6IA-yuStI-35" value="" style="endArrow=classic;html=1;rounded=0;" edge="1" parent="1">
          <mxGeometry width="50" height="50" relative="1" as="geometry">
            <mxPoint x="220" y="1390" as="sourcePoint" />
            <mxPoint x="200" y="1240" as="targetPoint" />
          </mxGeometry>
        </mxCell>
        <mxCell id="H08UzFWmHtk6IA-yuStI-36" value="" style="endArrow=classic;html=1;rounded=0;" edge="1" parent="1">
          <mxGeometry width="50" height="50" relative="1" as="geometry">
            <mxPoint x="220" y="1390" as="sourcePoint" />
            <mxPoint x="320" y="1260" as="targetPoint" />
          </mxGeometry>
        </mxCell>
        <mxCell id="H08UzFWmHtk6IA-yuStI-37" value="" style="endArrow=classic;html=1;rounded=0;" edge="1" parent="1">
          <mxGeometry width="50" height="50" relative="1" as="geometry">
            <mxPoint x="150" y="1400" as="sourcePoint" />
            <mxPoint x="180" y="1290" as="targetPoint" />
          </mxGeometry>
        </mxCell>
        <mxCell id="H08UzFWmHtk6IA-yuStI-38" value="" style="endArrow=classic;html=1;rounded=0;" edge="1" parent="1">
          <mxGeometry width="50" height="50" relative="1" as="geometry">
            <mxPoint x="380" y="1390" as="sourcePoint" />
            <mxPoint x="360" y="1240" as="targetPoint" />
          </mxGeometry>
        </mxCell>
        <mxCell id="H08UzFWmHtk6IA-yuStI-39" value="" style="endArrow=classic;html=1;rounded=0;" edge="1" parent="1">
          <mxGeometry width="50" height="50" relative="1" as="geometry">
            <mxPoint x="380" y="1390" as="sourcePoint" />
            <mxPoint x="480" y="1260" as="targetPoint" />
          </mxGeometry>
        </mxCell>
        <mxCell id="H08UzFWmHtk6IA-yuStI-41" value="" style="endArrow=classic;html=1;rounded=0;" edge="1" parent="1">
          <mxGeometry width="50" height="50" relative="1" as="geometry">
            <mxPoint x="455" y="1420" as="sourcePoint" />
            <mxPoint x="485" y="1310" as="targetPoint" />
          </mxGeometry>
        </mxCell>
        <mxCell id="H08UzFWmHtk6IA-yuStI-42" value="" style="endArrow=classic;html=1;rounded=0;" edge="1" parent="1">
          <mxGeometry width="50" height="50" relative="1" as="geometry">
            <mxPoint x="540" y="1390" as="sourcePoint" />
            <mxPoint x="520" y="1240" as="targetPoint" />
          </mxGeometry>
        </mxCell>
        <mxCell id="H08UzFWmHtk6IA-yuStI-43" value="" style="endArrow=classic;html=1;rounded=0;" edge="1" parent="1">
          <mxGeometry width="50" height="50" relative="1" as="geometry">
            <mxPoint x="540" y="1390" as="sourcePoint" />
            <mxPoint x="640" y="1260" as="targetPoint" />
          </mxGeometry>
        </mxCell>
        <mxCell id="H08UzFWmHtk6IA-yuStI-44" value="" style="endArrow=classic;html=1;rounded=0;" edge="1" parent="1">
          <mxGeometry width="50" height="50" relative="1" as="geometry">
            <mxPoint x="550" y="1360" as="sourcePoint" />
            <mxPoint x="580" y="1250" as="targetPoint" />
          </mxGeometry>
        </mxCell>
        <mxCell id="H08UzFWmHtk6IA-yuStI-46" value="Base" style="text;html=1;align=center;verticalAlign=middle;whiteSpace=wrap;rounded=0;" vertex="1" parent="1">
          <mxGeometry x="95" y="1390" width="60" height="30" as="geometry" />
        </mxCell>
        <mxCell id="H08UzFWmHtk6IA-yuStI-47" value="Current" style="text;html=1;align=center;verticalAlign=middle;whiteSpace=wrap;rounded=0;" vertex="1" parent="1">
          <mxGeometry x="125" y="1270" width="60" height="30" as="geometry" />
        </mxCell>
        <mxCell id="H08UzFWmHtk6IA-yuStI-48" value="Base" style="text;html=1;align=center;verticalAlign=middle;whiteSpace=wrap;rounded=0;" vertex="1" parent="1">
          <mxGeometry x="392.5" y="1400" width="60" height="30" as="geometry" />
        </mxCell>
        <mxCell id="H08UzFWmHtk6IA-yuStI-49" value="Base" style="text;html=1;align=center;verticalAlign=middle;whiteSpace=wrap;rounded=0;" vertex="1" parent="1">
          <mxGeometry x="525" y="1350" width="60" height="30" as="geometry" />
        </mxCell>
        <mxCell id="H08UzFWmHtk6IA-yuStI-50" value="Current" style="text;html=1;align=center;verticalAlign=middle;whiteSpace=wrap;rounded=0;" vertex="1" parent="1">
          <mxGeometry x="450" y="1290" width="60" height="30" as="geometry" />
        </mxCell>
        <mxCell id="H08UzFWmHtk6IA-yuStI-51" value="Current" style="text;html=1;align=center;verticalAlign=middle;whiteSpace=wrap;rounded=0;" vertex="1" parent="1">
          <mxGeometry x="550" y="1220" width="60" height="30" as="geometry" />
        </mxCell>
        <mxCell id="H08UzFWmHtk6IA-yuStI-52" value="" style="endArrow=classic;html=1;rounded=0;" edge="1" parent="1">
          <mxGeometry width="50" height="50" relative="1" as="geometry">
            <mxPoint x="184" y="1700" as="sourcePoint" />
            <mxPoint x="164" y="1550" as="targetPoint" />
          </mxGeometry>
        </mxCell>
        <mxCell id="H08UzFWmHtk6IA-yuStI-53" value="" style="endArrow=classic;html=1;rounded=0;" edge="1" parent="1">
          <mxGeometry width="50" height="50" relative="1" as="geometry">
            <mxPoint x="184" y="1700" as="sourcePoint" />
            <mxPoint x="284" y="1570" as="targetPoint" />
          </mxGeometry>
        </mxCell>
        <mxCell id="H08UzFWmHtk6IA-yuStI-54" value="" style="endArrow=classic;html=1;rounded=0;" edge="1" parent="1">
          <mxGeometry width="50" height="50" relative="1" as="geometry">
            <mxPoint x="129" y="1680" as="sourcePoint" />
            <mxPoint x="214" y="1590" as="targetPoint" />
          </mxGeometry>
        </mxCell>
        <mxCell id="H08UzFWmHtk6IA-yuStI-55" value="Base" style="text;html=1;align=center;verticalAlign=middle;whiteSpace=wrap;rounded=0;" vertex="1" parent="1">
          <mxGeometry x="79" y="1670" width="60" height="30" as="geometry" />
        </mxCell>
        <mxCell id="H08UzFWmHtk6IA-yuStI-56" value="Current" style="text;html=1;align=center;verticalAlign=middle;whiteSpace=wrap;rounded=0;" vertex="1" parent="1">
          <mxGeometry x="181.5" y="1560" width="60" height="30" as="geometry" />
        </mxCell>
        <mxCell id="H08UzFWmHtk6IA-yuStI-57" value="" style="endArrow=classic;html=1;rounded=0;" edge="1" parent="1">
          <mxGeometry width="50" height="50" relative="1" as="geometry">
            <mxPoint x="374" y="1700" as="sourcePoint" />
            <mxPoint x="354" y="1550" as="targetPoint" />
          </mxGeometry>
        </mxCell>
        <mxCell id="H08UzFWmHtk6IA-yuStI-58" value="" style="endArrow=classic;html=1;rounded=0;" edge="1" parent="1">
          <mxGeometry width="50" height="50" relative="1" as="geometry">
            <mxPoint x="374" y="1700" as="sourcePoint" />
            <mxPoint x="474" y="1570" as="targetPoint" />
          </mxGeometry>
        </mxCell>
        <mxCell id="H08UzFWmHtk6IA-yuStI-59" value="" style="endArrow=classic;html=1;rounded=0;entryX=0.5;entryY=1;entryDx=0;entryDy=0;" edge="1" parent="1" target="H08UzFWmHtk6IA-yuStI-61">
          <mxGeometry width="50" height="50" relative="1" as="geometry">
            <mxPoint x="470" y="1680" as="sourcePoint" />
            <mxPoint x="404" y="1600" as="targetPoint" />
          </mxGeometry>
        </mxCell>
        <mxCell id="H08UzFWmHtk6IA-yuStI-60" value="Base" style="text;html=1;align=center;verticalAlign=middle;whiteSpace=wrap;rounded=0;" vertex="1" parent="1">
          <mxGeometry x="430" y="1690" width="51" height="20" as="geometry" />
        </mxCell>
        <mxCell id="H08UzFWmHtk6IA-yuStI-61" value="Current" style="text;html=1;align=center;verticalAlign=middle;whiteSpace=wrap;rounded=0;" vertex="1" parent="1">
          <mxGeometry x="369" y="1560" width="60" height="30" as="geometry" />
        </mxCell>
        <mxCell id="H08UzFWmHtk6IA-yuStI-62" value="" style="endArrow=classic;html=1;rounded=0;" edge="1" parent="1">
          <mxGeometry width="50" height="50" relative="1" as="geometry">
            <mxPoint x="292.5" y="2140" as="sourcePoint" />
            <mxPoint x="272.5" y="1990" as="targetPoint" />
          </mxGeometry>
        </mxCell>
        <mxCell id="H08UzFWmHtk6IA-yuStI-63" value="" style="endArrow=classic;html=1;rounded=0;" edge="1" parent="1">
          <mxGeometry width="50" height="50" relative="1" as="geometry">
            <mxPoint x="292.5" y="2140" as="sourcePoint" />
            <mxPoint x="392.5" y="2010" as="targetPoint" />
          </mxGeometry>
        </mxCell>
        <mxCell id="H08UzFWmHtk6IA-yuStI-64" value="" style="endArrow=classic;html=1;rounded=0;startSize=6;strokeWidth=1;" edge="1" parent="1">
          <mxGeometry width="50" height="50" relative="1" as="geometry">
            <mxPoint x="237.5" y="2120" as="sourcePoint" />
            <mxPoint x="322.5" y="2030" as="targetPoint" />
          </mxGeometry>
        </mxCell>
        <mxCell id="H08UzFWmHtk6IA-yuStI-65" value="Base" style="text;html=1;align=center;verticalAlign=middle;whiteSpace=wrap;rounded=0;" vertex="1" parent="1">
          <mxGeometry x="167.5" y="2090" width="60" height="30" as="geometry" />
        </mxCell>
        <mxCell id="H08UzFWmHtk6IA-yuStI-66" value="Current" style="text;html=1;align=center;verticalAlign=middle;whiteSpace=wrap;rounded=0;" vertex="1" parent="1">
          <mxGeometry x="319" y="2000" width="50" height="20" as="geometry" />
        </mxCell>
        <mxCell id="H08UzFWmHtk6IA-yuStI-67" value="" style="endArrow=classic;html=1;rounded=0;" edge="1" parent="1">
          <mxGeometry width="50" height="50" relative="1" as="geometry">
            <mxPoint x="649" y="1700" as="sourcePoint" />
            <mxPoint x="629" y="1550" as="targetPoint" />
          </mxGeometry>
        </mxCell>
        <mxCell id="H08UzFWmHtk6IA-yuStI-68" value="" style="endArrow=classic;html=1;rounded=0;" edge="1" parent="1">
          <mxGeometry width="50" height="50" relative="1" as="geometry">
            <mxPoint x="649" y="1700" as="sourcePoint" />
            <mxPoint x="749" y="1570" as="targetPoint" />
          </mxGeometry>
        </mxCell>
        <mxCell id="H08UzFWmHtk6IA-yuStI-69" value="" style="endArrow=classic;html=1;rounded=0;" edge="1" parent="1">
          <mxGeometry width="50" height="50" relative="1" as="geometry">
            <mxPoint x="620" y="1760" as="sourcePoint" />
            <mxPoint x="659" y="1610" as="targetPoint" />
          </mxGeometry>
        </mxCell>
        <mxCell id="H08UzFWmHtk6IA-yuStI-70" value="Base" style="text;html=1;align=center;verticalAlign=middle;whiteSpace=wrap;rounded=0;" vertex="1" parent="1">
          <mxGeometry x="596.5" y="1770" width="33.5" height="20" as="geometry" />
        </mxCell>
        <mxCell id="H08UzFWmHtk6IA-yuStI-71" value="Current" style="text;html=1;align=center;verticalAlign=middle;whiteSpace=wrap;rounded=0;" vertex="1" parent="1">
          <mxGeometry x="644" y="1560" width="60" height="30" as="geometry" />
        </mxCell>
        <mxCell id="H08UzFWmHtk6IA-yuStI-72" value="" style="endArrow=none;html=1;rounded=0;dashed=1;jumpSize=1;" edge="1" parent="1">
          <mxGeometry width="50" height="50" relative="1" as="geometry">
            <mxPoint x="569" y="1800" as="sourcePoint" />
            <mxPoint x="649" y="1700" as="targetPoint" />
          </mxGeometry>
        </mxCell>
        <mxCell id="H08UzFWmHtk6IA-yuStI-73" value="" style="endArrow=none;html=1;rounded=0;dashed=1;" edge="1" parent="1">
          <mxGeometry width="50" height="50" relative="1" as="geometry">
            <mxPoint x="670" y="1810" as="sourcePoint" />
            <mxPoint x="649" y="1700" as="targetPoint" />
          </mxGeometry>
        </mxCell>
        <mxCell id="H08UzFWmHtk6IA-yuStI-74" value="" style="endArrow=none;dashed=1;html=1;rounded=0;fillColor=#f8cecc;strokeColor=#b85450;strokeWidth=2;" edge="1" parent="1">
          <mxGeometry width="50" height="50" relative="1" as="geometry">
            <mxPoint x="238" y="2120" as="sourcePoint" />
            <mxPoint x="290" y="2113" as="targetPoint" />
          </mxGeometry>
        </mxCell>
        <mxCell id="H08UzFWmHtk6IA-yuStI-75" value="" style="endArrow=none;dashed=1;html=1;rounded=0;fillColor=#dae8fc;strokeColor=#6c8ebf;strokeWidth=2;" edge="1" parent="1">
          <mxGeometry width="50" height="50" relative="1" as="geometry">
            <mxPoint x="279" y="2037" as="sourcePoint" />
            <mxPoint x="322" y="2031" as="targetPoint" />
          </mxGeometry>
        </mxCell>
        <mxCell id="H08UzFWmHtk6IA-yuStI-76" value="x" style="text;html=1;align=center;verticalAlign=middle;whiteSpace=wrap;rounded=0;fontColor=#d03e5b;" vertex="1" parent="1">
          <mxGeometry x="250" y="2120" width="25" height="20" as="geometry" />
        </mxCell>
        <mxCell id="H08UzFWmHtk6IA-yuStI-77" value="y" style="text;html=1;align=center;verticalAlign=middle;whiteSpace=wrap;rounded=0;fontColor=#6295bc;" vertex="1" parent="1">
          <mxGeometry x="280" y="2010" width="25" height="20" as="geometry" />
        </mxCell>
        <mxCell id="H08UzFWmHtk6IA-yuStI-79" value="" style="endArrow=classic;html=1;rounded=0;fillColor=#d80073;strokeColor=#A50040;" edge="1" parent="1">
          <mxGeometry width="50" height="50" relative="1" as="geometry">
            <mxPoint x="129" y="1680" as="sourcePoint" />
            <mxPoint x="175" y="1631" as="targetPoint" />
          </mxGeometry>
        </mxCell>
        <mxCell id="H08UzFWmHtk6IA-yuStI-80" value="" style="endArrow=classic;html=1;rounded=0;fillColor=#d80073;strokeColor=#A50040;" edge="1" parent="1">
          <mxGeometry width="50" height="50" relative="1" as="geometry">
            <mxPoint x="470" y="1680" as="sourcePoint" />
            <mxPoint x="429" y="1628" as="targetPoint" />
          </mxGeometry>
        </mxCell>
        <mxCell id="H08UzFWmHtk6IA-yuStI-82" value="" style="endArrow=classic;html=1;rounded=0;fillColor=#d80073;strokeColor=#A50040;strokeWidth=2;" edge="1" parent="1">
          <mxGeometry width="50" height="50" relative="1" as="geometry">
            <mxPoint x="620" y="1760" as="sourcePoint" />
            <mxPoint x="629" y="1726" as="targetPoint" />
          </mxGeometry>
        </mxCell>
        <mxCell id="H08UzFWmHtk6IA-yuStI-83" value="" style="endArrow=classic;html=1;rounded=0;" edge="1" parent="1">
          <mxGeometry width="50" height="50" relative="1" as="geometry">
            <mxPoint x="820" y="1700" as="sourcePoint" />
            <mxPoint x="800" y="1550" as="targetPoint" />
          </mxGeometry>
        </mxCell>
        <mxCell id="H08UzFWmHtk6IA-yuStI-84" value="" style="endArrow=classic;html=1;rounded=0;" edge="1" parent="1">
          <mxGeometry width="50" height="50" relative="1" as="geometry">
            <mxPoint x="820" y="1700" as="sourcePoint" />
            <mxPoint x="920" y="1570" as="targetPoint" />
          </mxGeometry>
        </mxCell>
        <mxCell id="H08UzFWmHtk6IA-yuStI-85" value="" style="endArrow=classic;html=1;rounded=0;" edge="1" parent="1">
          <mxGeometry width="50" height="50" relative="1" as="geometry">
            <mxPoint x="791" y="1760" as="sourcePoint" />
            <mxPoint x="830" y="1610" as="targetPoint" />
          </mxGeometry>
        </mxCell>
        <mxCell id="H08UzFWmHtk6IA-yuStI-86" value="Base" style="text;html=1;align=center;verticalAlign=middle;whiteSpace=wrap;rounded=0;" vertex="1" parent="1">
          <mxGeometry x="767.5" y="1770" width="33.5" height="20" as="geometry" />
        </mxCell>
        <mxCell id="H08UzFWmHtk6IA-yuStI-87" value="Current" style="text;html=1;align=center;verticalAlign=middle;whiteSpace=wrap;rounded=0;" vertex="1" parent="1">
          <mxGeometry x="815" y="1560" width="60" height="30" as="geometry" />
        </mxCell>
        <mxCell id="H08UzFWmHtk6IA-yuStI-88" value="" style="endArrow=none;html=1;rounded=0;dashed=1;jumpSize=1;" edge="1" parent="1">
          <mxGeometry width="50" height="50" relative="1" as="geometry">
            <mxPoint x="740" y="1800" as="sourcePoint" />
            <mxPoint x="820" y="1700" as="targetPoint" />
          </mxGeometry>
        </mxCell>
        <mxCell id="H08UzFWmHtk6IA-yuStI-89" value="" style="endArrow=none;html=1;rounded=0;dashed=1;" edge="1" parent="1">
          <mxGeometry width="50" height="50" relative="1" as="geometry">
            <mxPoint x="841" y="1810" as="sourcePoint" />
            <mxPoint x="820" y="1700" as="targetPoint" />
          </mxGeometry>
        </mxCell>
        <mxCell id="H08UzFWmHtk6IA-yuStI-90" value="" style="endArrow=classic;html=1;rounded=0;fillColor=#d80073;strokeColor=#A50040;strokeWidth=2;" edge="1" parent="1">
          <mxGeometry width="50" height="50" relative="1" as="geometry">
            <mxPoint x="791" y="1760" as="sourcePoint" />
            <mxPoint x="815" y="1666" as="targetPoint" />
          </mxGeometry>
        </mxCell>
      </root>
    </mxGraphModel>
  </diagram>
</mxfile>
